<svg xmlns="http://www.w3.org/2000/svg" xmlns:xlink="http://www.w3.org/1999/xlink" width="960px" height="630px" viewBox="0 0 960 630" preserveAspectRatio="xMidYMid meet" ><rect id="svgEditorBackground" x="0" y="0" width="960" height="630" style="fill: none; stroke: none;"/><defs id="svgEditorDefs"><marker id="square12" markerHeight="12" markerUnits="strokeWidth" markerWidth="12" orient="auto" refX="0" refY="0" viewBox="-5 -5 10 10"><rect height="10" style="fill:black;stroke:none;" width="10" x="-5" y="-5"/></marker></defs><text style="fill:black;font-family:Arial;font-size:20px;" x="69" y="89" id="e2_texte"></text><rect x="17" y="42" style="stroke: black; stroke-width: 1px;fill:none;stroke-dasharray:2px,2px;" id="e3_rectangle" width="230" height="600"/><text style="fill:black;font-family:Arial;font-size:20px;" x="100" y="20" id="e4_texte">I-Bay</text><rect x="26" y="53" style="fill:tan;stroke:black;stroke-width:1px;" id="e5_rectangle" width="214" height="34"/><rect x="26" y="95" style="fill:tan;stroke:black;stroke-width:1px;" id="e2_rectangle" width="214" height="34"/><rect x="26" y="187" style="fill:tan;stroke:black;stroke-width:1px;" id="e1_rectangle" width="214" height="34"/><rect x="26" y="233" style="fill:tan;stroke:black;stroke-width:1px;" id="e4_rectangle" width="214" height="34"/><rect x="26" y="141" style="fill:tan;stroke:black;stroke-width:1px;" id="e6_rectangle" width="214" height="34"/><rect x="25" y="279" style="fill:tan;stroke:black;stroke-width:1px;" id="e7_rectangle" width="214" height="34"/><text style="fill:black;font-family:Arial;font-size:20px;" x="50" y="77" id="e6_texte">AVI Logic PSU A</text><text style="fill:black;font-family:Arial;font-size:20px;" x="50" y="120" id="e7_texte">AVI Logic PSU B</text><text style="fill:black;font-family:Arial;font-size:20px;" x="50" y="165" id="e8_texte">AVI Logic PSU C</text><text style="fill:black;font-family:Arial;font-size:20px;" x="50" y="210" id="e9_texte">AVI Valve PSU A</text><text style="fill:black;font-family:Arial;font-size:20px;" x="50" y="257" id="e10_texte">AVI Valve PSU B</text><text style="fill:black;font-family:Arial;font-size:20px;" x="50" y="303" id="e11_texte">AVI Valve PSU C</text><rect x="300" y="42" style="stroke: black; stroke-width: 1px;fill:none;stroke-dasharray:2px,2px;" id="e8_rectangle" width="230" height="600"/><rect x="306" y="52" style="fill:tan;stroke:black;stroke-width:1px;" id="e9_rectangle" width="214" height="34"/><rect x="306" y="94" style="fill:tan;stroke:black;stroke-width:1px;" id="e10_rectangle" width="214" height="34"/><rect x="306" y="186" style="fill:tan;stroke:black;stroke-width:1px;" id="e11_rectangle" width="214" height="34"/><rect x="306" y="232" style="fill:tan;stroke:black;stroke-width:1px;" id="e12_rectangle" width="214" height="34"/><rect x="306" y="140" style="fill:tan;stroke:black;stroke-width:1px;" id="e13_rectangle" width="214" height="34"/><rect x="305" y="278" style="fill:tan;stroke:black;stroke-width:1px;" id="e14_rectangle" width="214" height="34"/><text style="fill:black;font-family:Arial;font-size:20px;" x="330" y="76" id="e14_texte">AVI Logic PSU A</text><text style="fill:black;font-family:Arial;font-size:20px;" x="330" y="119" id="e15_texte">AVI Logic PSU B</text><text style="fill:black;font-family:Arial;font-size:20px;" x="330" y="164" id="e16_texte">AVI Logic PSU C</text><text style="fill:black;font-family:Arial;font-size:20px;" x="330" y="209" id="e17_texte">AVI Valve PSU A</text><text style="fill:black;font-family:Arial;font-size:20px;" x="330" y="256" id="e18_texte">AVI Valve PSU B</text><text style="fill:black;font-family:Arial;font-size:20px;" x="330" y="302" id="e19_texte">AVI Valve PSU C</text><text style="fill:black;font-family:Arial;font-size:20px;" x="324" y="21" id="e12_texte">Honeycomb Box</text><line id="e13_line" x1="240" y1="66" x2="305" y2="66" style="stroke:black;fill:none;stroke-width:4px;"/><line id="e2_line" x1="241" y1="111" x2="306" y2="111" style="stroke:black;fill:none;stroke-width:4px;"/><line id="e1_line" x1="241" y1="158" x2="306" y2="158" style="stroke:black;fill:none;stroke-width:4px;"/><line id="e3_line" x1="241" y1="203" x2="306" y2="203" style="stroke:black;fill:none;stroke-width:4px;"/><line id="e4_line" x1="240" y1="248" x2="305" y2="248" style="stroke:black;fill:none;stroke-width:4px;"/><line id="e5_line" x1="239" y1="295" x2="304" y2="295" style="stroke:black;fill:none;stroke-width:4px;"/><rect x="308" y="411" style="fill:tan;stroke:black;stroke-width:1px;" id="e15_rectangle" width="214" height="34"/><line id="e16_line" x1="417" y1="312" x2="417" y2="410" style="stroke:black;fill:none;stroke-width:4px;"/><text style="fill:black;font-family:Arial;font-size:12px;" x="400" y="425" id="e20_texte"><tspan x="339">Voltage Divider for</tspan><tspan x="339" dy="1.25em">Power Monitoring</tspan></text><rect x="589" y="34" style="stroke: black; stroke-width: 1px;fill:none;stroke-dasharray:2px,2px;" id="e16_rectangle" width="230" height="0"/><rect x="575" y="33" style="stroke: black; stroke-width: 1px;fill:none;stroke-dasharray:2px,2px;" id="e17_rectangle" width="230" height="300"/><rect x="584" y="45" style="fill:tan;stroke:black;stroke-width:1px;" id="e18_rectangle" width="214" height="34"/><rect x="584" y="87" style="fill:tan;stroke:black;stroke-width:1px;" id="e19_rectangle" width="214" height="34"/><rect x="584" y="179" style="fill:tan;stroke:black;stroke-width:1px;" id="e20_rectangle" width="214" height="34"/><rect x="584" y="225" style="fill:tan;stroke:black;stroke-width:1px;" id="e21_rectangle" width="214" height="34"/><rect x="584" y="133" style="fill:tan;stroke:black;stroke-width:1px;" id="e22_rectangle" width="214" height="34"/><rect x="583" y="271" style="fill:tan;stroke:black;stroke-width:1px;" id="e23_rectangle" width="214" height="34"/><text style="fill:black;font-family:Arial;font-size:20px;" x="608" y="69" id="e23_texte">AVI Logic PSU A</text><text style="fill:black;font-family:Arial;font-size:20px;" x="608" y="112" id="e24_texte">AVI Logic PSU B</text><text style="fill:black;font-family:Arial;font-size:20px;" x="608" y="157" id="e25_texte">AVI Logic PSU C</text><text style="fill:black;font-family:Arial;font-size:20px;" x="608" y="202" id="e26_texte">AVI Valve PSU A</text><text style="fill:black;font-family:Arial;font-size:20px;" x="608" y="249" id="e27_texte">AVI Valve PSU B</text><text style="fill:black;font-family:Arial;font-size:20px;" x="608" y="295" id="e28_texte">AVI Valve PSU C</text><line id="e6_line" x1="519" y1="63" x2="584" y2="63" style="stroke:black;fill:none;stroke-width:4px;"/><line id="e7_line" x1="520" y1="108" x2="585" y2="108" style="stroke:black;fill:none;stroke-width:4px;"/><line id="e8_line" x1="520" y1="155" x2="585" y2="155" style="stroke:black;fill:none;stroke-width:4px;"/><line id="e9_line" x1="520" y1="200" x2="585" y2="200" style="stroke:black;fill:none;stroke-width:4px;"/><line id="e10_line" x1="519" y1="245" x2="584" y2="245" style="stroke:black;fill:none;stroke-width:4px;"/><line id="e11_line" x1="518" y1="292" x2="583" y2="292" style="stroke:black;fill:none;stroke-width:4px;"/><text style="fill:black;font-family:Arial;font-size:20px;" x="585" y="25" id="e29_texte">Avionics Box</text><rect x="575" y="353" style="stroke: black; stroke-width: 1px;fill:none;stroke-dasharray:2px,2px;" id="e24_rectangle" width="230" height="300"/><rect x="587" y="411" style="fill:tan;stroke:black;stroke-width:1px;" id="e25_rectangle" width="214" height="34"/><text style="fill:black;font-family:Arial;font-size:20px;" x="610" y="435" id="e31_texte"><tspan x="611">Voltage Channel</tspan><tspan x="599" dy="1.25em"></tspan></text><line id="e12_line" x1="521" y1="428" x2="586" y2="428" style="stroke:black;fill:none;stroke-width:4px;"/></svg>