<svg xmlns="http://www.w3.org/2000/svg" xmlns:xlink="http://www.w3.org/1999/xlink" width="1000px" height="630px" viewBox="0 0 1000 630" preserveAspectRatio="xMidYMid meet" ><rect id="svgEditorBackground" x="0" y="0" width="1000" height="630" style="fill: none; stroke: none;"/><rect x="184" y="10" style="fill:burlywood;stroke:black;stroke-width:1px;" id="e1_rectangle" width="268" height="262" transform="matrix(1.58407 0 0 1.58771 0.584069 -0.0134261)"/><circle id="e2_circle" cx="220" cy="46" style="fill:white;stroke:black;stroke-width:1px;" r="24.8394846967" transform="matrix(1.58407 0 0 1.58771 0.584069 -0.0134261)"/><circle id="e3_circle" cx="221" cy="102" style="fill:white;stroke:black;stroke-width:1px;" r="24.8394846967" transform="matrix(1.58407 0 0 1.58771 0.584069 -0.0134261)"/><circle id="e1_circle" cx="416" cy="100" style="fill:white;stroke:black;stroke-width:1px;" r="24.8394846967" transform="matrix(1.58407 0 0 1.58771 0.584069 -0.0134261)"/><circle id="e4_circle" cx="415" cy="44" style="fill:white;stroke:black;stroke-width:1px;" r="24.8394846967" transform="matrix(1.58407 0 0 1.58771 0.584069 -0.0134261)"/><circle id="e5_circle" cx="322" cy="226" style="fill:white;stroke:black;stroke-width:1px;" r="24.8394846967" transform="matrix(1.58407 0 0 1.58771 0.584069 -0.0134261)"/><circle id="e6_circle" cx="321" cy="169" style="fill:white;stroke:black;stroke-width:1px;" r="24.8394846967" transform="matrix(1.58407 0 0 1.58771 0.584069 -0.0134261)"/><circle id="e7_circle" cx="415" cy="224" style="fill:white;stroke:black;stroke-width:1px;" r="24.8394846967" transform="matrix(1.58407 0 0 1.58771 0.584069 -0.0134261)"/><circle id="e8_circle" cx="414" cy="168" style="fill:white;stroke:black;stroke-width:1px;" r="24.8394846967" transform="matrix(1.58407 0 0 1.58771 0.584069 -0.0134261)"/><text style="fill:black;font-family:Arial;font-size:20px;" x="209" y="54" id="e3_texte" transform="matrix(1.58407 0 0 1.58771 0.584069 -0.0134261)">98</text><text style="fill:black;font-family:Arial;font-size:20px;" x="210" y="110" id="e4_texte" transform="matrix(1.58407 0 0 1.58771 0.584069 -0.0134261)">99</text><text style="fill:black;font-family:Arial;font-size:20px;" x="405" y="52" id="e5_texte" transform="matrix(1.58407 0 0 1.58771 0.584069 -0.0134261)">L3</text><text style="fill:black;font-family:Arial;font-size:20px;" x="563" y="117" id="e6_texte"></text><text style="fill:black;font-family:Arial;font-size:20px;" x="405" y="108" id="e7_texte" transform="matrix(1.58407 0 0 1.58771 0.584069 -0.0134261)">K3</text><text style="fill:black;font-family:Arial;font-size:20px;" x="309" y="176" id="e8_texte" transform="matrix(1.58407 0 0 1.58771 0.584069 -0.0134261)">R2</text><text style="fill:black;font-family:Arial;font-size:20px;" x="309" y="234" id="e9_texte" transform="matrix(1.58407 0 0 1.58771 0.584069 -0.0134261)">S2</text><text style="fill:black;font-family:Arial;font-size:20px;" x="402" y="176" id="e10_texte" transform="matrix(1.58407 0 0 1.58771 0.584069 -0.0134261)">R1</text><text style="fill:black;font-family:Arial;font-size:20px;" x="404" y="232" id="e11_texte" transform="matrix(1.58407 0 0 1.58771 0.584069 -0.0134261)">S1</text><line id="e12_line" x1="196" y1="47" x2="52" y2="47" style="stroke:red;fill:none;stroke-width:3px;" transform="matrix(1.58407 0 0 1.58771 0.584069 -0.0134261)"/><line id="e2_line" x1="196" y1="106" x2="52" y2="106" style="stroke:black;fill:none;stroke-width:3px;" transform="matrix(1.58407 0 0 1.58771 0.584069 -0.0134261)"/><text style="fill:black;font-family:Arial;font-size:20px;" x="9" y="71" id="e13_texte" transform="matrix(1.58407 0 0 1.58771 0.584069 -0.0134261)"><tspan x="9">Controller </tspan><tspan x="9" dy="1.25em">Power</tspan></text><line id="e3_line" x1="583" y1="45" x2="439" y2="45" style="stroke:red;fill:none;stroke-width:3px;" transform="matrix(1.58407 0 0 1.58771 0.584069 -0.0134261)"/><polyline style="stroke:black;fill:none;stroke-width:3px;" id="e14_polyline" points="246 110 277 133 581 134" transform="matrix(1.58407 0 0 1.58771 0.584069 -0.0134261)"/><text style="fill:black;font-family:Arial;font-size:20px;" x="550" y="84" id="e15_texte" transform="matrix(1.58407 0 0 1.58771 0.584069 -0.0134261)"><tspan x="550">Heater</tspan><tspan x="550" dy="1.25em">Power</tspan></text><line id="e16_line" x1="246" y1="48" x2="390" y2="102" style="stroke:red;fill:none;stroke-width:3px;" transform="matrix(1.58407 0 0 1.58771 0.584069 -0.0134261)"/><line id="e17_line" x1="440" y1="170" x2="595" y2="170" style="stroke:yellow;fill:none;stroke-width:3px;" transform="matrix(1.58407 0 0 1.58771 0.584069 -0.0134261)"/><line id="e18_line" x1="390" y1="169" x2="346" y2="169" style="stroke:yellow;fill:none;stroke-width:3px;" transform="matrix(1.58407 0 0 1.58771 0.584069 -0.0134261)"/><line id="e19_line" x1="348" y1="226" x2="391" y2="226" style="stroke:red;fill:none;stroke-width:3px;" transform="matrix(1.58407 0 0 1.58771 0.584069 -0.0134261)"/><line id="e20_line" x1="441" y1="223" x2="591" y2="223" style="stroke:red;fill:none;stroke-width:3px;" transform="matrix(1.58407 0 0 1.58771 0.584069 -0.0134261)"/><text style="fill:black;font-family:Arial;font-size:20px;" x="569" y="207" id="e21_texte" transform="matrix(1.58407 0 0 1.58771 0.584069 -0.0134261)">TC</text></svg>