<svg xmlns="http://www.w3.org/2000/svg" xmlns:xlink="http://www.w3.org/1999/xlink" width="930px" height="630px" viewBox="0 0 930 630" preserveAspectRatio="xMidYMid meet" ><defs id="svgEditorDefs"><polygon id="svgEditorShapeDefs" style="fill:rosybrown;stroke:black;vector-effect:non-scaling-stroke;stroke-width:1px;"/></defs><rect id="svgEditorBackground" x="0" y="0" width="930" height="630" style="fill: none; stroke: none;"/><rect x="85" y="24" style="fill:yellow;stroke:black;stroke-width:1px;" id="e1_rectangle" width="338" height="594"/><rect x="110" y="50" style="fill:silver;stroke:black;stroke-width:1px;" id="e2_rectangle" width="290" height="147"/><line id="e3_line" x1="120" y1="123" x2="301" y2="123" style="stroke:black;fill:none;stroke-width:1px;"/><rect x="124" y="59" style="fill:silver;stroke:black;stroke-width:1px;" id="e4_rectangle" width="165" height="20"/><rect x="126" y="136" style="fill:silver;stroke:black;stroke-width:1px;" id="e5_rectangle" width="163" height="22"/><rect x="324" y="59" style="fill:silver;stroke:black;stroke-width:1px;" id="e6_rectangle" width="46" height="20"/><rect x="323" y="140" style="fill:silver;stroke:black;stroke-width:1px;" id="e3_rectangle" width="46" height="20"/><circle id="e7_circle" cx="111" cy="221" style="fill:lime;stroke:black;stroke-width:1px;" r="16.2788205961"/><rect x="149" y="215" style="fill:silver;stroke:black;stroke-width:1px;" id="e8_rectangle" width="46" height="20"/><rect x="207" y="215" style="fill:silver;stroke:black;stroke-width:1px;" id="e7_rectangle" width="46" height="20"/><rect x="265" y="214" style="fill:silver;stroke:black;stroke-width:1px;" id="e9_rectangle" width="46" height="20"/><circle id="e1_circle" cx="371" cy="228" style="fill:gray;stroke:black;stroke-width:1px;" r="16.2788205961"/><rect x="101" y="255" style="fill:silver;stroke:black;stroke-width:1px;" id="e10_rectangle" width="48" height="59"/><rect x="161" y="256" style="fill:silver;stroke:black;stroke-width:1px;" id="e11_rectangle" width="46" height="20"/><rect x="222" y="256" style="fill:silver;stroke:black;stroke-width:1px;" id="e12_rectangle" width="46" height="20"/><rect x="286" y="256" style="fill:silver;stroke:black;stroke-width:1px;" id="e13_rectangle" width="46" height="20"/><rect x="161" y="286" style="fill:silver;stroke:black;stroke-width:1px;" id="e14_rectangle" width="46" height="20"/><rect x="221" y="286" style="fill:silver;stroke:black;stroke-width:1px;" id="e15_rectangle" width="46" height="20"/><rect x="287" y="287" style="fill:silver;stroke:black;stroke-width:1px;" id="e16_rectangle" width="46" height="20"/><rect x="101" y="358" style="fill:silver;stroke:black;stroke-width:1px;" id="e17_rectangle" width="46" height="20"/><circle id="e2_circle" cx="141" cy="459" style="fill:red;stroke:black;stroke-width:1px;" r="16.2788205961"/><circle id="e3_circle" cx="142" cy="540" style="fill:red;stroke:black;stroke-width:1px;" r="16.2788205961"/><circle id="e4_circle" cx="210" cy="458" style="fill:red;stroke:black;stroke-width:1px;" r="16.2788205961"/><circle id="e5_circle" cx="375" cy="460" style="fill:red;stroke:black;stroke-width:1px;" r="16.2788205961"/><circle id="e6_circle" cx="373" cy="543" style="fill:black;stroke:black;stroke-width:1px;" r="16.2788205961"/><circle id="e8_circle" cx="208" cy="540" style="fill:black;stroke:black;stroke-width:1px;" r="16.2788205961"/><ellipse id="e14_ellipse" cx="286" cy="500" style="fill:silver;stroke:black;stroke-width:1px;" rx="25.8144" ry="59.9143"/><line id="e15_line" x1="286" y1="457" x2="286" y2="476" style="stroke:black;fill:none;stroke-width:3.35px;"/><line id="e16_line" x1="285" y1="502" x2="285" y2="530" style="stroke:black;fill:none;stroke-width:3.35px;"/><circle id="e17_circle" cx="110" cy="221" style="fill:white; stroke: black; stroke-width: 1px;" r="11.1803398875"/><line id="e18_line" x1="109" y1="216" x2="109" y2="227" style="stroke:black;fill:none;stroke-width:1px;"/><text style="fill:black;font-family:Arial;font-size:20px;" x="155" y="219" id="e19_texte" transform="matrix(0.436559 0 0 0.436559 93.1988 127.437)"><tspan x="155">V mA</tspan><tspan x="155" dy="1.25em">Loop</tspan></text><text style="fill:black;font-family:Arial;font-size:20px;" x="109" y="269" id="e20_texte" transform="matrix(0.491774 0 0 0.673983 50.433 89.5701)"><tspan x="109">MEAS</tspan><tspan x="109" dy="1.25em">--------</tspan><tspan x="109" dy="1.25em">SOURCE</tspan></text><text style="fill:black;font-family:Arial;font-size:20px;" x="105" y="32" id="e21_texte" transform="matrix(1 0 0 1 10 11)">Fluke 725</text><text style="fill:black;font-family:Arial;font-size:20px;" x="165" y="266" id="e22_texte" transform="matrix(0.901838 0 0 0.901838 14.5706 32.9699)">V mA</text><text style="fill:black;font-family:Arial;font-size:20px;" x="295" y="262" id="e23_texte" transform="matrix(0.924919 0 0 0.924919 14.9337 31.2686)">Hz Ω</text><text style="fill:black;font-family:Arial;font-size:20px;" x="167" y="290" id="e24_texte" transform="matrix(1 0 0 1 3 14)">TC</text><text style="fill:black;font-family:Arial;font-size:20px;" x="233" y="300" id="e25_texte" transform="matrix(1 0 0 1 -9 3)">RTD</text><text style="fill:black;font-family:Arial;font-size:20px;" x="293" y="294" id="e26_texte" transform="matrix(0.895089 0 0 0.895089 24.0123 41.4866)">*C *F</text><text style="fill:black;font-family:Arial;font-size:20px;" x="115" y="415" id="e27_texte"><tspan x="115"> </tspan><tspan x="115" dy="1.25em"/></text><text style="fill:black;font-family:Arial;font-size:20px;" x="113" y="415" id="e28_texte" transform="matrix(0.609268 0 0 0.609268 46.2226 173.651)">SOURCE/ MEASURE</text><text style="fill:black;font-family:Arial;font-size:20px;" x="98" y="444" id="e29_texte" transform="matrix(0.755602 0 0 0.755602 17.5071 116.67)"><tspan x="98">mA+</tspan><tspan x="98" dy="1.25em">3W</tspan></text><text style="fill:black;font-family:Arial;font-size:20px;" x="97" y="537" id="e30_texte" transform="matrix(0.779186 0 0 0.779186 19.2108 120.394)"><tspan x="97">mA-</tspan><tspan x="97" dy="1.25em">4W</tspan></text><text style="fill:black;font-family:Arial;font-size:20px;" x="235" y="444" id="e31_texte" transform="matrix(0.654594 0 0 0.654594 77.7163 140.324)"><tspan x="235"/><tspan x="235" dy="1.25em">V</tspan><tspan x="235" dy="1.25em">Ω</tspan><tspan x="235" dy="1.25em">Hz</tspan><tspan x="235" dy="1.25em">RTD</tspan></text><text style="fill:black;font-family:Arial;font-size:20px;" x="232" y="553" id="e32_texte" transform="matrix(0.733741 0 0 0.733741 55.4188 141.721)">COM</text><text style="fill:black;font-family:Arial;font-size:20px;" x="276" y="426" id="e33_texte" transform="matrix(1 0 0 1 -5 5)">TC</text><line id="e34_line" x1="321" y1="424" x2="324" y2="595" style="stroke:black;fill:none;stroke-width:1px;"/><text style="fill:black;font-family:Arial;font-size:20px;" x="333" y="423" id="e35_texte" transform="matrix(0.744677 0 0 0.744677 87.5779 110.831)">MEASURE</text><text style="fill:black;font-family:Arial;font-size:20px;" x="327" y="449" id="e36_texte" transform="matrix(0.849362 0 0 0.849362 57.7523 82.4187)"><tspan x="327">V</tspan><tspan x="327" dy="1.25em">mA</tspan></text><text style="fill:black;font-family:Arial;font-size:20px;" x="330" y="505" id="e37_texte" transform="matrix(0.604631 0 0 0.604631 125.672 207.01)">LOOP</text><text style="fill:black;font-family:Arial;font-size:20px;" x="332" y="573" id="e38_texte" transform="matrix(0.701994 0 0 0.701994 98.0658 173.221)">COM</text><path d="M2,0h2l-4,-4l-4,4h2v4h4Z" style="fill:rosybrown; stroke:black; vector-effect:non-scaling-stroke;stroke-width:1px;" id="e1_shape" transform="matrix(1.73896 0 0 1.73896 175.836 245.442)"/><circle id="e9_circle" cx="722.3659057616999" cy="497.8391418456846" style="fill:rosybrown;stroke:black;stroke-width:1px;" r="131.3965946353"/><line id="e10_line" x1="382.523659306" y1="464.0536277603" x2="694.5425867508" y2="465.047318612" style="stroke:red;fill:none;stroke-width:3px;"/><line id="e2_line" x1="389.4796142578125" y1="543.5489952496549" x2="701.4981689453125" y2="544.5427086285612" style="stroke:black;fill:none;stroke-width:3px;"/><text style="fill:black;font-family:Arial;font-size:20px;" x="149.0063018798828" y="105.33123016357422" id="e11_texte">4.000 mA</text><text style="fill:black;font-family:Arial;font-size:20px;" x="134.10092163085938" y="77.50788116455078" id="e12_texte">Measure Loop</text></svg>