<svg xmlns="http://www.w3.org/2000/svg" xmlns:xlink="http://www.w3.org/1999/xlink" width="960px" height="630px" viewBox="0 -0.03105590119957924 960 630.0621337890625" preserveAspectRatio="xMidYMid meet" ><rect id="svgEditorBackground" x="0" y="0" width="960" height="630" style="fill: none; stroke: none;"/><rect x="30" y="34" style="fill:silver;stroke:black;stroke-width:1px;" id="e1_rectangle" width="128" height="38"/><text style="fill:black;font-family:Arial;font-size:20px;" x="43" y="56" id="e2_texte">9263</text><text style="fill:black;font-family:Arial;font-size:20px;" x="32" y="14" id="e3_texte"><tspan x="307">IBAY</tspan><tspan x="32" dy="1.25em"/></text><text style="fill:black;font-family:Arial;font-size:20px;" x="39.968963623046875" y="110.99998474121094" id="e4_texte">NBHS RACK</text><rect x="186" y="85" style="fill:silver;stroke:black;stroke-width:1px;" id="e2_rectangle" width="128" height="38"/><text style="fill:black;font-family:Arial;font-size:20px;" x="226" y="111" id="e12_texte">BUS</text><text style="fill:black;font-family:Arial;font-size:20px;" x="37.98756408691406" y="269.4412841796875" id="e14_texte">EBHS RACK</text><text style="fill:black;font-family:Arial;font-size:20px;" x="43.950321197509766" y="499.4101867675781" id="e17_texte">NBLS RACK</text><text style="fill:black;font-family:Arial;font-size:20px;" x="47.937870025634766" y="590.2234497070312" id="e20_texte">WBLS</text><text style="fill:black;font-family:Arial;font-size:20px;" x="244" y="372" id="e22_texte"/><text style="fill:black;font-family:Arial;font-size:20px;" x="225.9847869873047" y="364.4483642578125" id="e31_texte"/><polyline style="stroke:black;fill:none;stroke-width:1px;" id="e1_polyline" points="159.006 54.627 247.453 54.627 247.453 83.4469"/><rect x="345.838500787" y="83.4469065552" style="fill:rosybrown;stroke:black;stroke-width:1px;" id="e3_rectangle" width="147.0807546928" height="87.4534217092"/><rect x="517.7639160156451" y="83.44689941408735" style="fill:rosybrown;stroke:black;stroke-width:1px;" id="e7_rectangle" width="147.0807546928" height="87.4534217092"/><rect x="687.7011718749633" y="82.45310211179458" style="fill:rosybrown;stroke:black;stroke-width:1px;" id="e8_rectangle" width="147.0807546928" height="87.4534217092"/><rect x="341.86325073246394" y="237.48420715330496" style="fill:rosybrown;stroke:black;stroke-width:1px;" id="e9_rectangle" width="147.0807546928" height="87.4534217092"/><rect x="514.7825317383233" y="238.47798156736746" style="fill:rosybrown;stroke:black;stroke-width:1px;" id="e10_rectangle" width="147.0807546928" height="87.4534217092"/><rect x="690.6831054687921" y="239.47175598142996" style="fill:rosybrown;stroke:black;stroke-width:1px;" id="e11_rectangle" width="147.0807546928" height="87.4534217092"/><polyline style="stroke:black;fill:none;stroke-width:1px;" id="e4_polyline" points="306.087 84.4407 305.093 68.5401 373.665 69.5339 373.665 81.4593"/><polyline style="stroke:black;fill:none;stroke-width:1px;" id="e5_polyline" points="289.193 85.4345 289.193 59.596 591.304 59.596 591.304 81.4593"/><polyline style="stroke:black;fill:none;stroke-width:1px;" id="e6_polyline" points="269.317 84.4407 269.317 50.6519 755.28 53.6332 755.28 80.4655"/><polyline style="stroke:black;fill:none;stroke-width:1px;" id="e7_polyline" points="300.124 125.186 300.124 277.236 341.863 277.236"/><polyline style="stroke:black;fill:none;stroke-width:1px;" id="e8_polyline" points="489.9378967285156 281.2109069824219"/><polyline style="stroke:black;fill:none;stroke-width:1px;" id="e9_polyline" points="467.081 237.484 467.081 218.602 750.311 218.602 750.311 238.478"/><polyline style="stroke:black;fill:none;stroke-width:1px;" id="e10_polyline" points="460.124 325.931 460.124 341.832 579.379 341.832 578.385 327.919"/><rect x="268.3228454590183" y="441.21054077151297" style="fill:rosybrown;stroke:black;stroke-width:1px;" id="e12_rectangle" width="147.0807546928" height="87.4534217092"/><rect x="266.3351745605957" y="538.6018676757523" style="fill:rosybrown;stroke:black;stroke-width:1px;" id="e13_rectangle" width="147.0807546928" height="87.4534217092"/><polyline style="stroke:black;fill:none;stroke-width:1px;" id="e11_polyline" points="223.602 124.192 226.584 469.037 267.329 469.037"/><polyline style="stroke:black;fill:none;stroke-width:1px;" id="e12_polyline" points="203.727 125.186 205.714 586.304 266.335 586.304"/><text style="fill:black;font-family:Arial;font-size:20px;" x="361.7391357421875" y="277.2356872558594" id="e13_texte"><tspan x="361.7391357421875">EB HSY 255</tspan><tspan x="361.7391357421875" dy="1.25em">PXI1-M5</tspan></text><text style="fill:black;font-family:Arial;font-size:20px;" x="298.1365051269531" y="478.9747619628906" id="e15_texte"><tspan x="298.1365051269531">NB V 063</tspan><tspan x="298.1365051269531" dy="1.25em">PXI2-M12</tspan></text><text style="fill:black;font-family:Arial;font-size:20px;" x="297.1428527832031" y="578.3536376953125" id="e16_texte"><tspan x="297.1428527832031">WB V 001</tspan><tspan x="297.1428527832031" dy="1.25em">PXI1-M11</tspan></text><text style="fill:black;font-family:Arial;font-size:20px;" x="531.8763427734375" y="277.4656066894531" id="e18_texte"><tspan x="531.8763427734375">EB HSV 015</tspan><tspan x="531.8763427734375" dy="1.25em">PXI1-M14</tspan><tspan x="531.8763427734375" dy="1.25em"></tspan></text><text style="fill:black;font-family:Arial;font-size:20px;" x="713.73974609375" y="277.4656677246094" id="e19_texte"><tspan x="713.73974609375">EB HS 047</tspan><tspan x="713.73974609375" dy="1.25em">PXI1-M9</tspan></text><text style="fill:black;font-family:Arial;font-size:20px;" x="366.9268493652344" y="119.42131805419922" id="e21_texte"><tspan x="366.9268493652344">NB HSY 255</tspan><tspan x="366.9268493652344" dy="1.25em">PXI1-M5</tspan></text><text style="fill:black;font-family:Arial;font-size:20px;" x="543.8214111328125" y="121.40890502929688" id="e23_texte"><tspan x="543.8214111328125">NB HSV 014</tspan><tspan x="543.8214111328125" dy="1.25em">PXI1-M11</tspan></text><text style="fill:black;font-family:Arial;font-size:20px;" x="714.7529907226562" y="121.40889739990234" id="e24_texte"><tspan x="714.7529907226562">NB HS 31</tspan><tspan x="714.7529907226562" dy="1.25em">PXI1-M3</tspan></text></svg>