<svg xmlns="http://www.w3.org/2000/svg" xmlns:xlink="http://www.w3.org/1999/xlink" width="930px" height="630px" viewBox="-0.04731861129403114 0 930.0946655273438 630" preserveAspectRatio="xMidYMid meet" ><defs id="svgEditorDefs"><polygon id="svgEditorShapeDefs" style="fill:rosybrown;stroke:black;vector-effect:non-scaling-stroke;stroke-width:1px;"/><linearGradient gradientUnits="objectBoundingBox" id="lgrd2-fire" spreadMethod="pad" x1="0%" x2="100%" y1="0%" y2="0%"><stop offset="0%" style="stop-color:rgb(255,255,0);stop-opacity:1"/><stop offset="100%" style="stop-color:rgb(255,0,0);stop-opacity:1"/></linearGradient></defs><rect id="svgEditorBackground" x="0" y="0" width="930" height="630" style="fill: none; stroke: none;"/><rect x="85" y="24" style="fill:yellow;stroke:black;stroke-width:1px;" id="e1_rectangle" width="338" height="594"/><rect x="110" y="50" style="fill:silver;stroke:black;stroke-width:1px;" id="e2_rectangle" width="290" height="147"/><line id="e3_line" x1="120" y1="123" x2="301" y2="123" style="stroke:black;fill:none;stroke-width:1px;"/><rect x="124" y="59" style="fill:silver;stroke:black;stroke-width:1px;" id="e4_rectangle" width="165" height="20"/><rect x="126" y="136" style="fill:silver;stroke:black;stroke-width:1px;" id="e5_rectangle" width="163" height="22"/><rect x="324" y="59" style="fill:silver;stroke:black;stroke-width:1px;" id="e6_rectangle" width="46" height="20"/><rect x="323" y="140" style="fill:silver;stroke:black;stroke-width:1px;" id="e3_rectangle" width="46" height="20"/><circle id="e7_circle" cx="111" cy="221" style="fill:lime;stroke:black;stroke-width:1px;" r="16.2788205961"/><rect x="149" y="215" style="fill:silver;stroke:black;stroke-width:1px;" id="e8_rectangle" width="46" height="20"/><rect x="207" y="215" style="fill:silver;stroke:black;stroke-width:1px;" id="e7_rectangle" width="46" height="20"/><rect x="265" y="214" style="fill:silver;stroke:black;stroke-width:1px;" id="e9_rectangle" width="46" height="20"/><circle id="e1_circle" cx="371" cy="228" style="fill:gray;stroke:black;stroke-width:1px;" r="16.2788205961"/><rect x="101" y="255" style="fill:silver;stroke:black;stroke-width:1px;" id="e10_rectangle" width="48" height="59"/><rect x="161" y="256" style="fill:silver;stroke:black;stroke-width:1px;" id="e11_rectangle" width="46" height="20"/><rect x="222" y="256" style="fill:silver;stroke:black;stroke-width:1px;" id="e12_rectangle" width="46" height="20"/><rect x="286" y="256" style="fill:silver;stroke:black;stroke-width:1px;" id="e13_rectangle" width="46" height="20"/><rect x="161" y="286" style="fill:silver;stroke:black;stroke-width:1px;" id="e14_rectangle" width="46" height="20"/><rect x="221" y="286" style="fill:silver;stroke:black;stroke-width:1px;" id="e15_rectangle" width="46" height="20"/><rect x="287" y="287" style="fill:silver;stroke:black;stroke-width:1px;" id="e16_rectangle" width="46" height="20"/><rect x="101" y="358" style="fill:silver;stroke:black;stroke-width:1px;" id="e17_rectangle" width="46" height="20"/><circle id="e2_circle" cx="141" cy="459" style="fill:red;stroke:black;stroke-width:1px;" r="16.2788205961"/><circle id="e3_circle" cx="142" cy="540" style="fill:red;stroke:black;stroke-width:1px;" r="16.2788205961"/><circle id="e4_circle" cx="210" cy="458" style="fill:red;stroke:black;stroke-width:1px;" r="16.2788205961"/><circle id="e5_circle" cx="375" cy="460" style="fill:red;stroke:black;stroke-width:1px;" r="16.2788205961"/><circle id="e6_circle" cx="373" cy="543" style="fill:black;stroke:black;stroke-width:1px;" r="16.2788205961"/><circle id="e8_circle" cx="208" cy="540" style="fill:black;stroke:black;stroke-width:1px;" r="16.2788205961"/><ellipse id="e14_ellipse" cx="286" cy="500" style="fill:silver;stroke:black;stroke-width:1px;" rx="25.8144" ry="59.9143"/><line id="e15_line" x1="286" y1="457" x2="286" y2="476" style="stroke:black;fill:none;stroke-width:3.35px;"/><line id="e16_line" x1="285" y1="502" x2="285" y2="530" style="stroke:black;fill:none;stroke-width:3.35px;"/><circle id="e17_circle" cx="110" cy="221" style="fill:white; stroke: black; stroke-width: 1px;" r="11.1803398875"/><line id="e18_line" x1="109" y1="216" x2="109" y2="227" style="stroke:black;fill:none;stroke-width:1px;"/><text style="fill:black;font-family:Arial;font-size:20px;" x="155" y="219" id="e19_texte" transform="matrix(0.436559 0 0 0.436559 93.1988 127.437)"><tspan x="155">V mA</tspan><tspan x="155" dy="1.25em">Loop</tspan></text><text style="fill:black;font-family:Arial;font-size:20px;" x="109" y="269" id="e20_texte" transform="matrix(0.491774 0 0 0.673983 50.433 89.5701)"><tspan x="109">MEAS</tspan><tspan x="109" dy="1.25em">--------</tspan><tspan x="109" dy="1.25em">SOURCE</tspan></text><text style="fill:black;font-family:Arial;font-size:20px;" x="105" y="32" id="e21_texte" transform="matrix(1 0 0 1 10 11)">Fluke 725</text><text style="fill:black;font-family:Arial;font-size:20px;" x="165" y="266" id="e22_texte" transform="matrix(0.901838 0 0 0.901838 14.5706 32.9699)">V mA</text><text style="fill:black;font-family:Arial;font-size:20px;" x="295" y="262" id="e23_texte" transform="matrix(0.924919 0 0 0.924919 14.9337 31.2686)">Hz Ω</text><text style="fill:black;font-family:Arial;font-size:20px;" x="167" y="290" id="e24_texte" transform="matrix(1 0 0 1 3 14)">TC</text><text style="fill:black;font-family:Arial;font-size:20px;" x="233" y="300" id="e25_texte" transform="matrix(1 0 0 1 -9 3)">RTD</text><text style="fill:black;font-family:Arial;font-size:20px;" x="293" y="294" id="e26_texte" transform="matrix(0.895089 0 0 0.895089 24.0123 41.4866)">*C *F</text><text style="fill:black;font-family:Arial;font-size:20px;" x="115" y="415" id="e27_texte"><tspan x="115"> </tspan><tspan x="115" dy="1.25em"/></text><text style="fill:black;font-family:Arial;font-size:20px;" x="113" y="415" id="e28_texte" transform="matrix(0.609268 0 0 0.609268 46.2226 173.651)">SOURCE/ MEASURE</text><text style="fill:black;font-family:Arial;font-size:20px;" x="98" y="444" id="e29_texte" transform="matrix(0.755602 0 0 0.755602 17.5071 116.67)"><tspan x="98">mA+</tspan><tspan x="98" dy="1.25em">3W</tspan></text><text style="fill:black;font-family:Arial;font-size:20px;" x="97" y="537" id="e30_texte" transform="matrix(0.779186 0 0 0.779186 19.2108 120.394)"><tspan x="97">mA-</tspan><tspan x="97" dy="1.25em">4W</tspan></text><text style="fill:black;font-family:Arial;font-size:20px;" x="235" y="444" id="e31_texte" transform="matrix(0.654594 0 0 0.654594 77.7163 140.324)"><tspan x="235"/><tspan x="235" dy="1.25em">V</tspan><tspan x="235" dy="1.25em">Ω</tspan><tspan x="235" dy="1.25em">Hz</tspan><tspan x="235" dy="1.25em">RTD</tspan></text><text style="fill:black;font-family:Arial;font-size:20px;" x="232" y="553" id="e32_texte" transform="matrix(0.733741 0 0 0.733741 55.4188 141.721)">COM</text><text style="fill:black;font-family:Arial;font-size:20px;" x="276" y="426" id="e33_texte" transform="matrix(1 0 0 1 -5 5)">TC</text><line id="e34_line" x1="321" y1="424" x2="324" y2="595" style="stroke:black;fill:none;stroke-width:1px;"/><text style="fill:black;font-family:Arial;font-size:20px;" x="333" y="423" id="e35_texte" transform="matrix(0.744677 0 0 0.744677 87.5779 110.831)">MEASURE</text><text style="fill:black;font-family:Arial;font-size:20px;" x="327" y="449" id="e36_texte" transform="matrix(0.849362 0 0 0.849362 57.7523 82.4187)"><tspan x="327">V</tspan><tspan x="327" dy="1.25em">mA</tspan></text><text style="fill:black;font-family:Arial;font-size:20px;" x="330" y="505" id="e37_texte" transform="matrix(0.604631 0 0 0.604631 125.672 207.01)">LOOP</text><text style="fill:black;font-family:Arial;font-size:20px;" x="332" y="573" id="e38_texte" transform="matrix(0.701994 0 0 0.701994 98.0658 173.221)">COM</text><text style="fill:black;font-family:Arial;font-size:20px;" x="147.01889038085938" y="149.04681396484375" id="e1_texte" transform="matrix(1 0 0 1 11.9243 3.97476)">Measure</text><text style="fill:black;font-family:Arial;font-size:20px;" x="157.94949340820312" y="179.85122680664062" id="e2_texte">81.5</text><text style="fill:black;font-family:Arial;font-size:20px;" x="331.84539794921875" y="151.03419494628906" id="e3_texte" transform="matrix(1 0 0 1 0.993691 6.95584)">*F</text><text style="fill:black;font-family:Arial;font-size:20px;" x="311.9715881347656" y="166.93325805664062" id="e4_texte" transform="matrix(1 0 0 1 2.98107 9.93691)">PT100</text><text style="fill:black;font-family:Arial;font-size:20px;" x="317.9337463378906" y="188.79444885253906" id="e5_texte" transform="matrix(1 0 0 1 12.918 3.97476)">4W</text><path d="M2,0h2l-4,-4l-4,4h2v4h4Z" style="fill:url(#lgrd2-fire); stroke:black; vector-effect:non-scaling-stroke;stroke-width:1px;" id="e6_shape" transform="matrix(3.85055 0 0 3.85055 246.885 327.414)"/><circle id="e9_circle" cx="706.4668999815" cy="364.677750067" style="fill:rosybrown;stroke:black;stroke-width:1px;" r="90.4477129933" transform="matrix(1 0 0 1 -87.4448 131.167)"/><polyline style="stroke:black;fill:none;stroke-width:1px;" id="e10_polyline" points="607.098 455.104 628.959 479.946 607.098 493.858 627.965 514.725 608.091 537.58 627.965 559.441"/><rect x="454.0693991882" y="378.5894233391" style="fill:olive;stroke:black;stroke-width:1px;" id="e18_rectangle" width="46.7034745563" height="244.4479732092"/><circle id="e21_circle" cx="476.92422485347066" cy="392.50109863277413" style="fill:olive;stroke:black;stroke-width:1px;" r="10.7023790447"/><circle id="e10_circle" cx="476.92431640621004" cy="431.2550048828054" style="fill:olive;stroke:black;stroke-width:1px;" r="10.7023790447"/><circle id="e11_circle" cx="476.9243164062752" cy="574.3463745116794" style="fill:olive;stroke:black;stroke-width:1px;" r="10.7023790447"/><circle id="e12_circle" cx="476.92440795901456" cy="604.1572265624764" style="fill:olive;stroke:black;stroke-width:1px;" r="10.7023790447"/><line id="e24_line" x1="482.8864366804" y1="394.4884785072" x2="607.097805181" y2="394.4884785072" style="stroke:red;fill:none;stroke-width:4px;"/><line id="e25_line" x1="608.091496129" y1="458.0846991795" x2="607.097805181" y2="394.4884785072" style="stroke:red;fill:none;stroke-width:4px;"/><line id="e26_line" x1="484.8738185764" y1="432.2487345313" x2="608.091496129" y2="432.2487345313" style="stroke:red;fill:none;stroke-width:4px;"/><line id="e27_line" x1="627.9653150891" y1="559.441175876" x2="627.9653150891" y2="610.1194142242" style="stroke:black;fill:none;stroke-width:4px;"/><line id="e28_line" x1="627.9653150891" y1="611.1131051722" x2="484.8738185764" y2="611.1131051722" style="stroke:black;fill:none;stroke-width:4px;"/><line id="e29_line" x1="488.8485823684" y1="576.3339219921" x2="626.9716241411" y2="579.3149948361" style="stroke:black;fill:none;stroke-width:4px;"/><line id="e30_line" x1="465.9936905643" y1="430.2613526353" x2="208.627735031" y2="430.2613526353" style="stroke:red;fill:none;stroke-width:4px;"/><line id="e31_line" x1="209.621425979" y1="430.2613526353" x2="209.621425979" y2="461.0657720235" style="stroke:red;fill:none;stroke-width:4px;"/><line id="e32_line" x1="206.640353135" y1="548.5105754479" x2="206.640353135" y2="574.3465400961" style="stroke:black;fill:none;stroke-width:4px;"/><line id="e33_line" x1="206.640353135" y1="574.3465400961" x2="471.9558362523" y2="575.3402310441" style="stroke:black;fill:none;stroke-width:4px;"/><polyline style="stroke:red;fill:none;stroke-width:4px;" id="e34_polyline" points="142.05 539.567 178.817 539.567 177.823 393.495 472.95 393.495 473.943 395.482 468.975 393.495"/><polyline style="stroke:black;fill:none;stroke-width:4px;" id="e35_polyline" points="133.107 461.066 66.5299 462.059 66.5299 608.132 473.943 606.145"/><path d="M-29.869566548766898,1.9369048078616755h2l-4,-4l-4,4h2v4.000000000000002h4Z" style="fill:url(#lgrd2-fire); stroke:black; vector-effect:non-scaling-stroke;stroke-width:1px;" id="e7_shape" transform="matrix(3.85055 0 0 3.85055 246.885 327.414)"/><text style="fill:black;font-family:Arial;font-size:20px;" x="647.839111328125" y="479.9458923339844" id="e39_texte">RTD</text></svg>