<svg xmlns="http://www.w3.org/2000/svg" xmlns:xlink="http://www.w3.org/1999/xlink" width="710px" height="630px" viewBox="0 -0.13657055795192719 710 630.2731323242188" preserveAspectRatio="xMidYMid meet" ><rect id="svgEditorBackground" x="0" y="0" width="710" height="630" style="fill:none; stroke: none;"/><rect x="35" y="61.1426606764381" style="fill:cornsilk;stroke:black;stroke-width:1px;stroke-dasharray:2px,2px;" id="e1_rectangle" width="636.615" height="114.45"/><rect x="34" y="184.09375518659903" style="fill:cornsilk;stroke:black;stroke-width:1px;stroke-dasharray:2px,2px;" id="e2_rectangle" width="638.768" height="103.688"/><text style="fill:black;font-family:Arial;font-size:20px;" x="300" y="226" id="e4_texte"><tspan x="300" dy="1.25em"/></text><text style="fill:black;font-family:Arial;font-size:20px;" x="261.8330078125" y="283.230224609375" id="e5_texte">120v Relay</text><circle id="e6_circle" cx="100" cy="36" style="fill:orangered;stroke:black;stroke-width:1px;" r="18.0197"/><text style="fill:black;font-family:Arial;font-size:20px;" x="81" y="41" id="e7_texte"/><text style="fill:black;font-family:Arial;font-size:20px;" x="84" y="43" id="e9_texte">24v</text><circle id="e2_circle" cx="538" cy="35" style="fill:orangered;stroke:black;stroke-width:1px;" r="22.0345"/><text style="fill:black;font-family:Arial;font-size:20px;" x="515" y="43" id="e10_texte">120v</text><circle id="e11_circle" cx="98.92259979248047" cy="84.36664337019276" style="fill:none;stroke:black;stroke-width:2px;" r="10"/><circle id="e3_circle" cx="538" cy="90.986" style="fill:none;stroke:black;stroke-width:2px;" r="10"/><circle id="e1_circle" cx="100" cy="206.53" style="fill:none;stroke:black;stroke-width:2px;" r="10"/><circle id="e4_circle" cx="101" cy="128.04" style="fill:none;stroke:black;stroke-width:2px;" r="10"/><circle id="e5_circle" cx="537" cy="129.73" style="fill:none;stroke:black;stroke-width:2px;" r="10"/><circle id="e8_circle" cx="537" cy="209.77" style="fill:none;stroke:black;stroke-width:2px;" r="10"/><line id="e12_line" x1="96.84522247314453" y1="93.36877960066151" x2="120.689" y2="119.438" style="stroke:black;fill:none;stroke-width:2px;"/><line id="e13_line" x1="526.845" y1="92.6783" x2="549.005" y2="128.578" style="stroke:black;fill:none;stroke-width:2px;"/><line id="e15_line" x1="98.9222" y1="74.2144" x2="99" y2="54.226094664138074" style="stroke:black;fill:none;stroke-width:2px;"/><line id="e2_line" x1="537.923" y1="80.9104" x2="538" y2="55.53565734724354" style="stroke:black;fill:none;stroke-width:2px;"/><circle id="e16_circle" cx="291.691" cy="122.987" style="fill:rosybrown;stroke:black;stroke-width:1px;" r="22.803508502"/><polyline style="stroke:black;fill:none;stroke-width:1px;" id="e17_polyline" points="290.536 99.9105 290.536 86.4522 382.536 87.4522"/><g id="e29_group"><path d="M382.5356600910471,88.45220030349012a3.75,3.75,0,0,1,0,15" style="fill:none;stroke:black;stroke-width:1px;" id="e19_circleArc"/><path d="M383.5356600910471,103.45220030349012a3.75,3.75,0,0,1,0,15.000000000000071" style="fill:none;stroke:black;stroke-width:1px;" id="e3_circleArc"/><path d="M384.5356600910471,118.45220030349019a3.75,3.75,0,0,1,0,15.000000000000071" style="fill:none;stroke:black;stroke-width:1px;" id="e1_circleArc"/><path d="M384.5356600910471,134.45220030349026a3.75,3.75,0,0,1,0,15" style="fill:none;stroke:black;stroke-width:1px;" id="e2_circleArc"/></g><polyline style="stroke:black;fill:none;stroke-width:1px;" id="e20_polyline" points="385.536 150.214 291.536 150.214 290.458 143.756"/><text style="fill:black;font-family:Arial;font-size:20px;" x="284.53564453125" y="128.8330078125" id="e21_texte">K</text><text style="fill:black;font-family:Arial;font-size:20px;" x="311.53564453125" y="83.45222473144531" id="e22_texte">A1(13)</text><text style="fill:black;font-family:Arial;font-size:20px;" x="312.6904296875" y="142.904296875" id="e23_texte">A2(14)</text><text style="fill:black;font-family:Arial;font-size:20px;" x="547.84521484375" y="85.45222473144531" id="e24_texte">41(12)</text><text style="fill:black;font-family:Arial;font-size:20px;" x="109" y="82.14266967773438" id="e25_texte">9(11)</text><text style="fill:black;font-family:Arial;font-size:20px;" x="545.6904296875" y="155.58251953125" id="e26_texte">42(4)</text><text style="fill:black;font-family:Arial;font-size:20px;" x="109.84522247314453" y="156.7373046875" id="e27_texte">5(14)</text><line id="e28_line" x1="100" y1="138.04688018659903" x2="100.003" y2="195.55" style="stroke:black;fill:none;stroke-width:2px;"/><circle id="e10_circle" cx="99" cy="250.205" style="fill:none;stroke:black;stroke-width:2px;" r="10"/><line id="e1_line" x1="91.0774" y1="209.777" x2="110" y2="248.922" style="stroke:black;fill:none;stroke-width:2px;"/><line id="e30_line" x1="537" y1="139.73730987409903" x2="537" y2="198.785" style="stroke:black;fill:none;stroke-width:2px;"/><text style="fill:black;font-family:Arial;font-size:20px;" x="110.15477752685547" y="208.09375" id="e31_texte">41(12)</text><text style="fill:black;font-family:Arial;font-size:20px;" x="544.6904296875" y="203.93896484375" id="e32_texte">11(9)</text><line id="e33_line" x1="527.380859375" y1="215.47461456159903" x2="554.073" y2="233.934" style="stroke:black;fill:none;stroke-width:2px;"/><circle id="e12_circle" cx="537" cy="247.84" style="fill:none;stroke:black;stroke-width:2px;" r="10"/><path d="M394,241.70106221547888a6.4302143238000005,6.4302143238000005,0,1,0,0,12" style="fill:none;stroke:black;stroke-width:2px;" id="e34_circleArc"/><path d="M394,254.70106221547888a6.4302143238000005,6.4302143238000005,0,1,0,0,12" style="fill:none;stroke:black;stroke-width:2px;" id="e5_circleArc"/><path d="M394,267.7010622154789a6.4302143238000005,6.4302143238000005,0,1,0,0,12" style="fill:none;stroke:black;stroke-width:2px;" id="e6_circleArc"/><line id="e35_line" x1="394" y1="241.70067840715097" x2="531.231" y2="242.778" style="stroke:black;fill:none;stroke-width:2px;"/><text style="fill:black;font-family:Arial;font-size:20px;" x="398" y="237.85546875" id="e2_texte">A1(13)</text><text style="fill:black;font-family:Arial;font-size:20px;" x="399" y="276.70068359375" id="e1_texte">A2(14)</text><line id="e39_line" x1="394" y1="279.700678407151" x2="503" y2="278.700678407151" style="stroke:black;fill:none;stroke-width:2px;"/><circle id="e14_circle" cx="502.99999999958453" cy="326.30151367231485" style="fill:orangered;stroke:black;stroke-width:1px;" r="29.3016"/><text style="fill:black;font-family:Arial;font-size:20px;" x="494" y="333.301513671875" id="e40_texte">N</text><line id="e41_line" x1="503" y1="277.545" x2="502.99999999958453" y2="297.30151367231485" style="stroke:black;fill:none;stroke-width:2px;"/><text style="fill:black;font-family:Arial;font-size:20px;" x="541.6904296875" y="279.70068359375" id="e42_texte">5(14)</text><circle id="e15_circle" cx="326" cy="320.914555967849" style="fill:orangered;stroke:black;stroke-width:1px;" r="29.3016"/><text style="fill:black;font-family:Arial;font-size:20px;" x="310" y="563" id="e44_texte"/><text style="fill:black;font-family:Arial;font-size:20px;" x="305" y="327.91455078125" id="e46_texte">480v</text><rect x="85.40515380998302" y="293.19970703125" style="fill:greenyellow;stroke:black;stroke-width:1px;" id="e47_rectangle" width="107.221" height="100.846"/><circle id="e17_circle" cx="101" cy="326.973637999099" style="fill:none;stroke:black;stroke-width:2px;" r="10"/><line id="e48_line" x1="99.9226" y1="260.143" x2="101" y2="317.973637999099" style="stroke:black;fill:none;stroke-width:2px;"/><line id="e49_line" x1="110.00003814697266" y1="329.973637999099" x2="129.537" y2="312.205" style="stroke:black;fill:none;stroke-width:2px;"/><circle id="e18_circle" cx="143.9984588623047" cy="326.9735769639428" style="fill:none;stroke:black;stroke-width:2px;" r="10"/><rect x="262.0008850097656" y="363.2241873155053" style="fill:lemonchiffon;stroke:black;stroke-width:2px;" id="e3_rectangle" width="132" height="72.8332"/><circle id="e19_circle" cx="324.9992370605469" cy="377.224126280349" style="fill:none;stroke:black;stroke-width:2px;" r="10"/><circle id="e20_circle" cx="325.999" cy="419.829" style="fill:none;stroke:black;stroke-width:2px;" r="10"/><line id="e51_line" x1="324.3597106933594" y1="385.7454275498803" x2="345.513" y2="410.514" style="stroke:black;fill:none;stroke-width:2px;"/><line id="e52_line" x1="324.3597106933594" y1="349.4356741319115" x2="324.36" y2="368.821" style="stroke:black;fill:none;stroke-width:1px;"/><path d="M274.35924742793696,373.73949539497806a8.5475532023,8.5475532023,0,1,1,0,17.000077454499547" style="fill:none;stroke:black;stroke-width:2px;" id="e53_circleArc"/><path d="M274.35924742799165,390.7395728495322a8.5475532023,8.5475532023,0,1,1,0,17.000077454499547" style="fill:none;stroke:black;stroke-width:2px;" id="e8_circleArc"/><path d="M275.3592519840463,407.73965030398637a8.5475532023,8.5475532023,0,1,1,0,17.000077454499547" style="fill:none;stroke:black;stroke-width:2px;" id="e9_circleArc"/><line id="e56_line" x1="276.5" y1="424.485845030349" x2="240.5" y2="424.485845030349" style="stroke:black;fill:none;stroke-width:2px;"/><text style="fill:black;font-family:Arial;font-size:20px;" x="97" y="353.81884765625" id="e57_texte">Logic</text><text style="fill:black;font-family:Arial;font-size:15px;" x="89.2503662109375" y="389.044921875" id="e58_texte">Watlow DAQ</text><circle id="e21_circle" cx="242.15479034284903" cy="465.81884765625" style="fill:orangered;stroke:black;stroke-width:1px;" r="15.5887"/><text style="fill:black;font-family:Arial;font-size:20px;" x="231.15478515625" y="473.81884765625" id="e59_texte">0v</text><line id="e60_line" x1="242.15478515625" y1="424.985834657151" x2="242.155" y2="449.75" style="stroke:black;fill:none;stroke-width:2px;"/><text style="fill:black;font-family:Arial;font-size:20px;" x="102.86946105957031" y="311.19970703125" id="e61_texte">L4/8</text><text style="fill:black;font-family:Arial;font-size:20px;" x="195.5478515625" y="325.12841796875" id="e62_texte">K4/8</text><circle id="e63_circle" cx="30.353373109299422" cy="326.0606689453125" style="fill:yellow;stroke:black;stroke-width:1px;" r="15.913869006614457"/><circle id="e22_circle" cx="30.853389739990234" cy="367.0606637587135" style="fill:yellow;stroke:black;stroke-width:1px;" r="15.913869006614457"/><line id="e64_line" x1="40.1988" y1="313.984" x2="85.15095275739979" y2="315.0606689453125" style="stroke:black;fill:none;stroke-width:2px;"/><line id="e3_line" x1="41.7762" y1="355.484" x2="85.65094512800526" y2="356.5606689453125" style="stroke:black;fill:none;stroke-width:2px;"/><line id="e4_line" x1="41.7762" y1="336.562" x2="85.65095275739979" y2="336.5606689453125" style="stroke:black;fill:none;stroke-width:2px;"/><line id="e5_line" x1="42.3536" y1="376.984" x2="85.15095275739979" y2="378.0606689453125" style="stroke:black;fill:none;stroke-width:2px;"/><text style="fill:black;font-family:Arial;font-size:20px;" x="17.853330612182617" y="334.06072998046875" id="e65_texte">TC</text><text style="fill:black;font-family:Arial;font-size:20px;" x="17.353342056274414" y="374.56072998046875" id="e3_texte">TC</text><text style="fill:black;font-family:Arial;font-size:15px;" x="51.65089416503906" y="313.0606689453125" id="e66_texte">S2/4</text><text style="fill:black;font-family:Arial;font-size:15px;" x="51.15088653564453" y="332.90594482421875" id="e67_texte">R2/4</text><text style="fill:black;font-family:Arial;font-size:15px;" x="51.65089416503906" y="352.406005859375" id="e68_texte">S3/1</text><text style="fill:black;font-family:Arial;font-size:15px;" x="52.15089416503906" y="374.40606689453125" id="e69_texte">R3/1</text><rect x="250.42431640625" y="540.3068940154271" style="fill:lemonchiffon;stroke:black;stroke-width:2px;" id="e4_rectangle" width="129.762" height="65.7115" transform="matrix(1.4447 0 0 1.4447 -100.946 -337.969)"/><circle id="e23_circle" cx="326.999" cy="462.82" style="fill:none;stroke:black;stroke-width:2px;" r="10"/><circle id="e24_circle" cx="327.999" cy="507.34" style="fill:none;stroke:black;stroke-width:2px;" r="10"/><line id="e71_line" x1="326.0625" y1="428.9248709092553" x2="325.908" y2="454.028" style="stroke:black;fill:none;stroke-width:2px;"/><line id="e72_line" x1="315.1336975097656" y1="464.32862365444805" x2="347.669" y2="498.004" style="stroke:black;fill:none;stroke-width:2px;"/><polyline style="stroke:black;fill:none;stroke-width:2px;" id="e74_polyline" points="546.986 209.722 605.831 209.722 607.753 498.174 423.682 498.251"/><text style="fill:black;font-family:Arial;font-size:20px;" x="453.67901611328125" y="453.98699951171875" id="e75_texte">14</text><text style="fill:black;font-family:Arial;font-size:20px;" x="453.67901611328125" y="493.903564453125" id="e76_texte">13</text><circle id="e25_circle" cx="415.7730407710645" cy="459.0862731929638" style="fill:none;stroke:black;stroke-width:2px;" r="10"/><circle id="e26_circle" cx="414.618" cy="499.156" style="fill:none;stroke:black;stroke-width:2px;" r="10"/><text style="fill:black;font-family:Arial;font-size:20px;" x="362.7502136230469" y="482.058349609375" id="e77_texte">Logic</text><text style="fill:black;font-family:Arial;font-size:20px;" x="273.7499084472656" y="488.12982177734375" id="e78_texte">Logic</text><line id="e79_line" x1="416.21466064411135" y1="468.91030883749505" x2="436.446" y2="490.756" style="stroke:black;fill:none;stroke-width:2px;"/><polyline style="stroke:black;fill:none;stroke-width:2px;" id="e80_polyline" points="538.441 257.524 537.364 460.219 426.215 459.142"/><polyline style="stroke:black;fill:none;stroke-width:2px;" id="e81_polyline" points="165.085 394.305 165.085 502.209 261.085 502.209"/><polyline style="stroke:black;fill:none;stroke-width:2px;" id="e82_polyline" points="137.246 394.305 137.091 527.209 260.085 528.209"/><text style="fill:black;font-family:Arial;font-size:20px;" x="93.16845703125" y="413.150390625" id="e83_texte">F5/1</text><text style="fill:black;font-family:Arial;font-size:20px;" x="167.9302978515625" y="414.150390625" id="e84_texte">H5/1</text><text style="fill:black;font-family:Arial;font-size:20px;" x="218.6920166015625" y="496.0546875" id="e85_texte">7</text><text style="fill:black;font-family:Arial;font-size:20px;" x="217.6920166015625" y="524.0546875" id="e86_texte">8</text><circle id="e87_circle" cx="328.692" cy="556.695" style="fill:rosybrown;stroke:black;stroke-width:1px;" r="17.6363"/><text style="fill: black; font-family: Arial; font-size: 20px;" x="349.0728759765625" y="563.6962890625" id="e91_texte">CT</text><text style="fill:black;font-family:Arial;font-size:15px;" x="277.3355712890625" y="572.2685546875" id="e93_texte">16</text><text style="fill:black;font-family:Arial;font-size:15px;" x="275.1807861328125" y="554.04248046875" id="e95_texte">15</text><text style="fill:black;font-family:Arial;font-size:20px;" x="297.4659423828125" y="552.47021484375" id="e96_texte">+</text><text style="fill:black;font-family:Arial;font-size:20px;" x="301.6207275390625" y="570.005859375" id="e97_texte">-</text><circle id="e98_circle" cx="552.713617860276" cy="573.051025390625" style="fill:orange;stroke:black;stroke-width:1px;" r="25.0775"/><text style="fill:black;font-family:Arial;font-size:20px;" x="263.96051025390625" y="172.24581909179688" id="e6_texte">24v Relay</text><polyline style="stroke:black;fill:none;stroke-width:2px;" id="e7_polyline" points="155.017 326.679 236.898 326.679 237.976 374.084 275.684 374.084"/><text style="fill:black;font-family:Arial;font-size:15px;" x="336.0790100097656" y="432.1017150878906" id="e8_texte">Sneider</text><text style="fill:black;font-family:Arial;font-size:20px;" x="52.72547912597656" y="507.5190124511719" id="e11_texte">4-20mA</text><polyline style="stroke:black;fill:none;stroke-width:2px;" id="e12_polyline" points="311.299 556.002 273.59 556.002 273.59 534.454"/><text style="fill:black;font-family:Arial;font-size:20px;" x="531.0866088867188" y="581.8589477539062" id="e13_texte">Heat</text><polyline style="stroke:black;fill:none;stroke-width:2px;" id="e14_polyline" points="328.537 518.293 328.537 579.704 530.009 579.704"/><polyline style="stroke:black;fill:none;stroke-width:2px;" id="e15_polyline" points="319.918 573.24 266.049 573.24 264.971 536.609"/></svg>