<svg xmlns="http://www.w3.org/2000/svg" xmlns:xlink="http://www.w3.org/1999/xlink" width="1000px" height="630px" viewBox="0 0 1000 630" preserveAspectRatio="xMidYMid meet" ><rect id="svgEditorBackground" x="0" y="0" width="1000" height="630" style="fill: none; stroke: none;"/><rect x="456.1794738769531" y="6.599320411682129" style="fill:orange;stroke:black;stroke-width:1px;" id="e2_rectangle" width="95" height="44" transform="matrix(1.90452 0 0 0.769432 -396.769 -1.50523)"/><text style="fill:black;font-family:Arial;font-size:20px;" x="510" y="53" id="e3_texte"></text><rect x="213.09725952148438" y="6.20203971862793" style="fill:pink;stroke:black;stroke-width:1px;" id="e1_rectangle" width="95" height="44" transform="matrix(1.90452 0 0 0.769432 -396.769 -1.50523)"/><rect x="213.1209259033203" y="55.19183349609375" style="fill:pink;stroke:black;stroke-width:1px;" id="e3_rectangle" width="95" height="44" transform="matrix(1.90452 0 0 0.769432 -396.769 -1.50523)"/><rect x="456.2033996582031" y="55.589111328125" style="fill:orange;stroke:black;stroke-width:1px;" id="e4_rectangle" width="95" height="44" transform="matrix(1.90452 0 0 0.769432 -396.769 -1.50523)"/><rect x="339.6854248046875" y="8.006802558898926" style="fill:lightskyblue;stroke:black;stroke-width:1px;" id="e5_rectangle" width="95" height="44" transform="matrix(1.90452 0 0 0.769432 -396.769 -1.50523)"/><rect x="339.7093200683594" y="58.2962532043457" style="fill:lightskyblue;stroke:black;stroke-width:1px;" id="e6_rectangle" width="95" height="44" transform="matrix(1.90452 0 0 0.769432 -396.769 -1.50523)"/><rect x="339.6854248046875" y="108.08061218261719" style="fill:lightskyblue;stroke:black;stroke-width:1px;" id="e7_rectangle" width="95" height="44" transform="matrix(1.90452 0 0 0.769432 -396.769 -1.50523)"/><rect x="339.7093200683594" y="158.37010192871094" style="fill:lightskyblue;stroke:black;stroke-width:1px;" id="e8_rectangle" width="95" height="44" transform="matrix(1.90452 0 0 0.769432 -396.769 -1.50523)"/><rect x="339.6852722167969" y="208.15438842773438" style="fill:lightskyblue;stroke:black;stroke-width:1px;" id="e9_rectangle" width="95" height="44" transform="matrix(1.90452 0 0 0.769432 -396.769 -1.50523)"/><rect x="339.70916748046875" y="258.4439697265625" style="fill:lightskyblue;stroke:black;stroke-width:1px;" id="e10_rectangle" width="95" height="44" transform="matrix(1.90452 0 0 0.769432 -396.769 -1.50523)"/><rect x="339.6852722167969" y="308.2283630371094" style="fill:lightskyblue;stroke:black;stroke-width:1px;" id="e11_rectangle" width="95" height="44" transform="matrix(1.90452 0 0 0.769432 -396.769 -1.50523)"/><rect x="339.70916748046875" y="358.5178527832031" style="fill:lightskyblue;stroke:black;stroke-width:1px;" id="e12_rectangle" width="95" height="44" transform="matrix(1.90452 0 0 0.769432 -396.769 -1.50523)"/><rect x="339.68548583984375" y="408.3021545410156" style="fill:lightskyblue;stroke:black;stroke-width:1px;" id="e13_rectangle" width="95" height="44" transform="matrix(1.90452 0 0 0.769432 -396.769 -1.50523)"/><rect x="339.7093811035156" y="458.59161376953125" style="fill:lightskyblue;stroke:black;stroke-width:1px;" id="e14_rectangle" width="95" height="44" transform="matrix(1.90452 0 0 0.769432 -396.769 -1.50523)"/><rect x="339.68548583984375" y="508.3759460449219" style="fill:lightskyblue;stroke:black;stroke-width:1px;" id="e15_rectangle" width="95" height="44" transform="matrix(1.90452 0 0 0.769432 -396.769 -1.50523)"/><rect x="339.7093811035156" y="558.665283203125" style="fill:lightskyblue;stroke:black;stroke-width:1px;" id="e16_rectangle" width="95" height="44" transform="matrix(1.90452 0 0 0.769432 -396.769 -1.50523)"/><rect x="339.6853332519531" y="608.4495239257812" style="fill:lightskyblue;stroke:black;stroke-width:1px;" id="e17_rectangle" width="95" height="44" transform="matrix(1.90452 0 0 0.769432 -396.769 -1.50523)"/><text style="fill:black;font-family:Arial;font-size:20px;" x="50" y="27" id="e7_texte">208 UPS</text><text style="fill:black;font-family:Arial;font-size:20px;" x="523" y="27" id="e8_texte">208 FAC</text><text style="fill:black;font-family:Arial;font-size:20px;" x="50" y="66" id="e9_texte">UPS PDU</text><text style="fill:black;font-family:Arial;font-size:20px;" x="518" y="67" id="e10_texte">FAC PDU</text><line id="e11_line" x1="191" y1="21" x2="251" y2="21" style="stroke:black;fill:none;stroke-width:1px;"/><line id="e2_line" x1="191" y1="58" x2="251" y2="58" style="stroke:black;fill:none;stroke-width:1px;"/><line id="e12_line" x1="432" y1="62" x2="472" y2="62" style="stroke:black;fill:none;stroke-width:1px;"/><text style="fill:black;font-family:Arial;font-size:20px;" x="250" y="32" id="e13_texte">AVI VEH PSU A,B,C</text><text style="fill:black;font-family:Arial;font-size:20px;" x="320" y="68" id="e14_texte">ATS</text><text style="fill:black;font-family:Arial;font-size:20px;" x="268" y="107" id="e15_texte">2 PLUG CHASIS</text><text style="fill:black;font-family:Arial;font-size:20px;" x="266" y="146" id="e16_texte">NET. SWITCHES</text><text style="fill:black;font-family:Arial;font-size:20px;" x="294" y="184" id="e17_texte">SERVER</text><text style="fill:black;font-family:Arial;font-size:20px;" x="269" y="223" id="e18_texte">VALVE PSU PRI</text><text style="fill:black;font-family:Arial;font-size:20px;" x="269" y="263" id="e1_texte">VALVE PSU SEC</text><text style="fill:black;font-family:Arial;font-size:20px;" x="275" y="299" id="e19_texte">INST PSU PRI</text><text style="fill:black;font-family:Arial;font-size:20px;" x="275" y="338" id="e2_texte">INST PSU SEC</text><text style="fill:black;font-family:Arial;font-size:20px;" x="293" y="377" id="e20_texte">AVI LOG A</text><text style="fill:black;font-family:Arial;font-size:20px;" x="284" y="414" id="e4_texte">AVI LOG B,C</text><text style="fill:black;font-family:Arial;font-size:20px;" x="281" y="453" id="e21_texte">AWS PSU PRI</text><text style="fill:black;font-family:Arial;font-size:20px;" x="277" y="490" id="e5_texte">AWS PSU SEC</text><line id="e22_line" x1="95" y1="76" x2="95" y2="445" style="stroke:black;fill:none;stroke-width:1px;"/><line id="e23_line" x1="250" y1="100" x2="95" y2="100" style="stroke:black;fill:none;stroke-width:1px;"/><line id="e3_line" x1="250" y1="140" x2="95" y2="140" style="stroke:black;fill:none;stroke-width:1px;"/><line id="e1_line" x1="249" y1="176" x2="94" y2="176" style="stroke:black;fill:none;stroke-width:1px;"/><line id="e4_line" x1="249" y1="216" x2="94" y2="216" style="stroke:black;fill:none;stroke-width:1px;"/><line id="e5_line" x1="249" y1="293" x2="94" y2="293" style="stroke:black;fill:none;stroke-width:1px;"/><line id="e6_line" x1="250" y1="406" x2="95" y2="406" style="stroke:black;fill:none;stroke-width:1px;"/><line id="e7_line" x1="249" y1="445" x2="94" y2="445" style="stroke:black;fill:none;stroke-width:1px;"/><line id="e24_line" x1="566" y1="77" x2="566" y2="482" style="stroke:black;fill:none;stroke-width:1px;"/><line id="e25_line" x1="566" y1="481" x2="432" y2="481" style="stroke:black;fill:none;stroke-width:1px;"/><line id="e8_line" x1="565" y1="370" x2="431" y2="370" style="stroke:black;fill:none;stroke-width:1px;"/><line id="e9_line" x1="566" y1="331" x2="432" y2="331" style="stroke:black;fill:none;stroke-width:1px;"/><line id="e10_line" x1="565" y1="253" x2="431" y2="253" style="stroke:black;fill:none;stroke-width:1px;"/><line id="e13_line" x1="566" y1="176" x2="432" y2="176" style="stroke:black;fill:none;stroke-width:1px;"/><line id="e14_line" x1="565" y1="138" x2="431" y2="138" style="stroke:black;fill:none;stroke-width:1px;"/><line id="e15_line" x1="565" y1="97" x2="431" y2="97" style="stroke:black;fill:none;stroke-width:1px;"/></svg>